<svg xmlns="http://www.w3.org/2000/svg" viewBox="0 0 512 512" fill="white">
  <path d="M256 0C114.6 0 0 114.6 0 256s114.6 256 256 256s256-114.6 256-256S397.4 0 256 0zM371.1 272l-80 80c-6.2 6.2-16.4 6.2-22.6 0l-80-80c-6.2-6.2-6.2-16.4 0-22.6l80-80c6.2-6.2 16.4-6.2 22.6 0l80 80C377.3 255.6 377.3 265.8 371.1 272zM399.4 393.4C375.3 417.5 342.3 432 307.7 435.2c-8.5 .8-17.1 1.2-25.7 1.2c-8.6 0-17.2-.4-25.7-1.2c-34.6-3.2-67.6-17.7-91.7-41.8c-24.1-24.1-38.6-57.1-41.8-91.7c-.8-8.5-1.2-17.1-1.2-25.7c0-8.6 .4-17.2 1.2-25.7c3.2-34.6 17.7-67.6 41.8-91.7c24.1-24.1 57.1-38.6 91.7-41.8c8.5-.8 17.1-1.2 25.7-1.2c8.6 0 17.2 .4 25.7 1.2c34.6 3.2 67.6 17.7 91.7 41.8c24.1 24.1 38.6 57.1 41.8 91.7c.8 8.5 1.2 17.1 1.2 25.7c0 8.6-.4 17.2-1.2 25.7C438 336.3 423.5 369.3 399.4 393.4z"/>
  <path d="M256 128c-70.7 0-128 57.3-128 128s57.3 128 128 128s128-57.3 128-128S326.7 128 256 128zM256 336c-44.1 0-80-35.9-80-80s35.9-80 80-80s80 35.9 80 80S300.1 336 256 336z"/>
  <path d="M256 192c-35.3 0-64 28.7-64 64s28.7 64 64 64s64-28.7 64-64S291.3 192 256 192zM256 288c-17.7 0-32-14.3-32-32s14.3-32 32-32s32 14.3 32 32S273.7 288 256 288z"/>
</svg>